AdventPro-blk_wd_it.ufo
<glyph name="parenleft" format="2">
  <advance width="362" height="962"/>
  <unicode hex="0028"/>
  <outline>
    <contour>
      <point x="478" y="731" type="line"/>
      <point x="478" y="731"/>
      <point x="374.365" y="703.923"/>
      <point x="354" y="608" type="curve" smooth="yes"/>
      <point x="247" y="104" type="line" smooth="yes"/>
      <point x="224.677" y="-1.1461"/>
      <point x="286.748" y="-16.3159"/>
      <point x="317" y="-35" type="curve"/>
      <point x="237" y="-117" type="line"/>
      <point x="100" y="-60"/>
      <point x="63" y="13"/>
      <point x="80" y="95" type="curve" smooth="yes"/>
      <point x="189" y="606" type="line" smooth="yes"/>
      <point x="206" y="685"/>
      <point x="275" y="767"/>
      <point x="424" y="819" type="curve"/>
    </contour>
  </outline>
</glyph>
<glyph name="less" format="2">
  <advance width="618" height="962"/>
  <unicode hex="003C"/>
  <outline>
    <contour>
      <point x="115" y="369" type="line"/>
      <point x="612.747" y="648.586" type="line"/>
      <point x="680.219" y="550.259" type="line"/>
      <point x="327" y="353" type="line"/>
      <point x="578.167" y="147.659" type="line"/>
      <point x="492.904" y="63.1726" type="line"/>
    </contour>
  </outline>
</glyph>
<glyph name="S" format="2">
  <advance width="782" height="962"/>
  <unicode hex="0053"/>
  <outline>
    <contour>
      <point x="718" y="533" type="line"/>
      <point x="657" y="550"/>
      <point x="601" y="557"/>
      <point x="523" y="557" type="curve" smooth="yes"/>
      <point x="448" y="557"/>
      <point x="359" y="553"/>
      <point x="351" y="519" type="curve" smooth="yes"/>
      <point x="334" y="437"/>
      <point x="846" y="432"/>
      <point x="799" y="214" type="curve" smooth="yes"/>
      <point x="764" y="46"/>
      <point x="576" y="-12"/>
      <point x="376" y="-12" type="curve" smooth="yes"/>
      <point x="247" y="-12"/>
      <point x="131" y="22"/>
      <point x="46" y="88" type="curve"/>
      <point x="155" y="210" type="line"/>
      <point x="220" y="165"/>
      <point x="316" y="148"/>
      <point x="422" y="148" type="curve" smooth="yes"/>
      <point x="527" y="148"/>
      <point x="601" y="162"/>
      <point x="609" y="199" type="curve" smooth="yes"/>
      <point x="627" y="281"/>
      <point x="117" y="291"/>
      <point x="164" y="513" type="curve" smooth="yes"/>
      <point x="197" y="668"/>
      <point x="407" y="710"/>
      <point x="559" y="710" type="curve" smooth="yes"/>
      <point x="642" y="710"/>
      <point x="724" y="699"/>
      <point x="792" y="673" type="curve"/>
    </contour>
  </outline>
  <guideline angle="90" x="57.5232" y="0"/>
  <guideline angle="0" x="0" y="586"/>
</glyph>
<glyph name="guillemotleft" format="2">
  <advance width="845"/>
  <unicode hex="00AB"/>
  <outline>
    <contour>
      <point x="650.965" y="258" type="line"/>
      <point x="860.622" y="381" type="line"/>
      <point x="787.926" y="475" type="line"/>
      <point x="436.965" y="268" type="line"/>
      <point x="709.005" y="51" type="line"/>
      <point x="794.671" y="139" type="line"/>
    </contour>
    <contour>
      <point x="318.965" y="258" type="line"/>
      <point x="528.622" y="381" type="line"/>
      <point x="457.926" y="475" type="line"/>
      <point x="104.965" y="268" type="line"/>
      <point x="379.005" y="51" type="line"/>
      <point x="463.671" y="139" type="line"/>
    </contour>
  </outline>
</glyph>
<glyph name="paragraph" format="2">
  <advance width="1005" height="962"/>
  <unicode hex="00B6"/>
  <outline>
    <contour>
      <point x="302" y="196" type="line" smooth="yes"/>
      <point x="189" y="196"/>
      <point x="81" y="237"/>
      <point x="128" y="454" type="curve" smooth="yes"/>
      <point x="169" y="651"/>
      <point x="299" y="702"/>
      <point x="409" y="702" type="curve" smooth="yes"/>
      <point x="1103" y="702" type="line"/>
      <point x="954" y="1" type="line"/>
      <point x="774" y="1" type="line"/>
      <point x="888" y="536" type="line"/>
      <point x="719" y="536" type="line"/>
      <point x="605" y="1" type="line"/>
      <point x="425" y="1" type="line"/>
      <point x="467" y="196" type="line"/>
    </contour>
    <contour>
      <point x="414" y="536" type="line" smooth="yes"/>
      <point x="337" y="536"/>
      <point x="313" y="525"/>
      <point x="297" y="453" type="curve" smooth="yes"/>
      <point x="281" y="375"/>
      <point x="300" y="360"/>
      <point x="377" y="360" type="curve" smooth="yes"/>
      <point x="502" y="360" type="line"/>
      <point x="539" y="536" type="line"/>
    </contour>
  </outline>
</glyph>
<glyph name="guillemotright" format="2">
  <advance width="845" height="962"/>
  <unicode hex="00BB"/>
  <outline>
    <contour>
      <point x="323" y="279" type="line"/>
      <point x="172" y="394" type="line"/>
      <point x="255" y="479" type="line"/>
      <point x="525" y="268" type="line"/>
      <point x="173" y="61" type="line"/>
      <point x="108" y="149" type="line"/>
    </contour>
    <contour>
      <point x="655" y="279" type="line"/>
      <point x="504" y="394" type="line"/>
      <point x="585" y="479" type="line"/>
      <point x="857" y="268" type="line"/>
      <point x="503" y="61" type="line"/>
      <point x="439" y="149" type="line"/>
    </contour>
  </outline>
</glyph>
<glyph name="Eth" format="2">
  <advance width="711" height="962"/>
  <unicode hex="00D0"/>
  <outline>
    <component base="D"/>
    <contour>
      <point x="240" y="269" type="line"/>
      <point x="271" y="414" type="line"/>
      <point x="481" y="414" type="line"/>
      <point x="431" y="269" type="line"/>
    </contour>
  </outline>
</glyph>
<glyph name="caron" format="2">
  <advance width="267" height="962"/>
  <unicode hex="02C7"/>
  <outline>
    <contour>
      <point x="433" y="711" type="line"/>
      <point x="260" y="593" type="line"/>
      <point x="138" y="714" type="line"/>
      <point x="225" y="790" type="line"/>
      <point x="287" y="729" type="line"/>
      <point x="381" y="791" type="line"/>
    </contour>
  </outline>
</glyph>
<glyph name="tilde" format="2">
  <advance width="267" height="962"/>
  <unicode hex="02DC"/>
  <outline>
    <contour>
      <point x="354" y="740" type="line"/>
      <point x="451" y="740" type="line"/>
      <point x="443" y="702" type="line" smooth="yes"/>
      <point x="433" y="652"/>
      <point x="398" y="604"/>
      <point x="330" y="604" type="curve" smooth="yes"/>
      <point x="302" y="604"/>
      <point x="287" y="610"/>
      <point x="274" y="616" type="curve" smooth="yes"/>
      <point x="268" y="618"/>
      <point x="250" y="627"/>
      <point x="245" y="630" type="curve" smooth="yes"/>
      <point x="236" y="635"/>
      <point x="227" y="638"/>
      <point x="220" y="638" type="curve" smooth="yes"/>
      <point x="205" y="638"/>
      <point x="202" y="628"/>
      <point x="200" y="617" type="curve" smooth="yes"/>
      <point x="197" y="603" type="line"/>
      <point x="100" y="603" type="line"/>
      <point x="104" y="621" type="line" smooth="yes"/>
      <point x="112" y="660"/>
      <point x="126" y="709"/>
      <point x="182" y="732" type="curve" smooth="yes"/>
      <point x="207" y="742"/>
      <point x="238" y="747"/>
      <point x="277" y="730" type="curve" smooth="yes"/>
      <point x="289" y="725"/>
      <point x="294" y="721"/>
      <point x="307" y="715" type="curve" smooth="yes"/>
      <point x="315" y="711"/>
      <point x="321" y="707"/>
      <point x="333" y="707" type="curve" smooth="yes"/>
      <point x="347" y="707"/>
      <point x="350" y="718"/>
      <point x="352" y="727" type="curve" smooth="yes"/>
    </contour>
  </outline>
</glyph>
<glyph name="Deltagreek" format="2">
  <advance width="785" height="962"/>
  <unicode hex="0394"/>
  <outline>
    <contour>
      <point x="764" y="0" type="line"/>
      <point x="22" y="0" type="line"/>
      <point x="404" y="700" type="line"/>
      <point x="678" y="700" type="line"/>
    </contour>
    <contour>
      <point x="284" y="139" type="line"/>
      <point x="564" y="139" type="line"/>
      <point x="514" y="562" type="line"/>
    </contour>
  </outline>
</glyph>
<glyph name="pi" format="2">
  <advance width="674" height="962"/>
  <unicode hex="03C0"/>
  <outline>
    <contour>
      <point x="650" y="141" type="line" smooth="yes"/>
      <point x="642" y="103"/>
      <point x="649" y="85"/>
      <point x="672" y="74" type="curve"/>
      <point x="536" y="-17" type="line"/>
      <point x="543" y="-16"/>
      <point x="441" y="7"/>
      <point x="468" y="130" type="curve" smooth="yes"/>
      <point x="508" y="321" type="line"/>
      <point x="287" y="321" type="line"/>
      <point x="219" y="0" type="line"/>
      <point x="38" y="0" type="line"/>
      <point x="144" y="501" type="line"/>
      <point x="726" y="501" type="line"/>
    </contour>
  </outline>
</glyph>
<glyph name="chi" format="2">
  <advance width="875" height="962"/>
  <unicode hex="03C7"/>
  <outline>
    <contour>
      <point x="685" y="20" type="line" smooth="yes"/>
      <point x="714" y="-29"/>
      <point x="749" y="-68"/>
      <point x="803" y="-68" type="curve"/>
      <point x="706" y="-213" type="line"/>
      <point x="600" y="-213"/>
      <point x="562" y="-143"/>
      <point x="524" y="-83" type="curve" smooth="yes"/>
      <point x="448" y="40" type="line"/>
      <point x="176" y="-210" type="line"/>
      <point x="15" y="-147" type="line"/>
      <point x="364" y="175" type="line"/>
      <point x="156" y="501" type="line"/>
      <point x="388" y="501" type="line"/>
      <point x="507" y="309" type="line"/>
      <point x="715" y="501" type="line"/>
      <point x="946" y="501" type="line"/>
      <point x="593" y="175" type="line"/>
    </contour>
  </outline>
</glyph>
<glyph name="uni0416" format="2">
  <advance width="1054" height="962"/>
  <unicode hex="0416"/>
  <outline>
    <contour>
      <point x="849" y="0" type="line"/>
      <point x="816" y="263" type="line"/>
      <point x="672" y="263" type="line"/>
      <point x="616" y="0" type="line"/>
      <point x="435" y="0" type="line"/>
      <point x="491" y="263" type="line"/>
      <point x="347" y="263" type="line"/>
      <point x="202" y="0" type="line"/>
      <point x="13" y="0" type="line"/>
      <point x="211" y="351" type="line"/>
      <point x="179" y="700" type="line"/>
      <point x="363" y="700" type="line"/>
      <point x="382" y="424" type="line"/>
      <point x="525" y="424" type="line"/>
      <point x="584" y="700" type="line"/>
      <point x="765" y="700" type="line"/>
      <point x="706" y="424" type="line"/>
      <point x="849" y="424" type="line"/>
      <point x="986" y="700" type="line"/>
      <point x="1173" y="700" type="line"/>
      <point x="987" y="351" type="line"/>
      <point x="1039" y="0" type="line"/>
    </contour>
  </outline>
</glyph>
<glyph name="uni0428" format="2">
  <advance width="973" height="962"/>
  <unicode hex="0428"/>
  <outline>
    <contour>
      <point x="899" y="700" type="line"/>
      <point x="1081" y="700" type="line"/>
      <point x="932" y="0" type="line"/>
      <point x="44" y="0" type="line"/>
      <point x="193" y="700" type="line"/>
      <point x="373" y="700" type="line"/>
      <point x="258" y="160" type="line"/>
      <point x="432" y="160" type="line"/>
      <point x="547" y="700" type="line"/>
      <point x="727" y="700" type="line"/>
      <point x="612" y="160" type="line"/>
      <point x="784" y="160" type="line"/>
    </contour>
  </outline>
</glyph>
<glyph name="uni042C" format="2">
  <advance width="649" height="962"/>
  <unicode hex="042C"/>
  <outline>
    <contour>
      <point x="510" y="411" type="line" smooth="yes"/>
      <point x="631" y="411"/>
      <point x="699" y="366"/>
      <point x="677" y="264" type="curve" smooth="yes"/>
      <point x="654" y="156" type="line" smooth="yes"/>
      <point x="627" y="28"/>
      <point x="525" y="-11"/>
      <point x="370" y="-11" type="curve" smooth="yes"/>
      <point x="208" y="-11"/>
      <point x="42" y="0"/>
      <point x="42" y="0" type="curve"/>
      <point x="191" y="700" type="line"/>
      <point x="372" y="700" type="line"/>
      <point x="310" y="411" type="line"/>
    </contour>
    <contour>
      <point x="479" y="178" type="curve" smooth="yes"/>
      <point x="489" y="226" type="line" smooth="yes"/>
      <point x="494" y="249"/>
      <point x="482" y="255"/>
      <point x="459" y="255" type="curve" smooth="yes"/>
      <point x="277" y="255" type="line"/>
      <point x="254" y="148" type="line"/>
      <point x="254" y="148"/>
      <point x="352" y="142"/>
      <point x="438" y="146" type="curve" smooth="yes"/>
      <point x="458" y="147"/>
      <point x="474" y="156"/>
    </contour>
  </outline>
</glyph>
<glyph name="uni0431" format="2">
  <advance width="639" height="962"/>
  <unicode hex="0431"/>
  <outline>
    <contour>
      <point x="500" y="509" type="curve" smooth="yes"/>
      <point x="608" y="509"/>
      <point x="707" y="461"/>
      <point x="679" y="327" type="curve" smooth="yes"/>
      <point x="648" y="185" type="line" smooth="yes"/>
      <point x="620" y="53"/>
      <point x="512" y="-11"/>
      <point x="320" y="-11" type="curve" smooth="yes"/>
      <point x="118" y="-11"/>
      <point x="37" y="48"/>
      <point x="66" y="185" type="curve" smooth="yes"/>
      <point x="129" y="480" type="line" smooth="yes"/>
      <point x="139" y="529"/>
      <point x="175" y="583"/>
      <point x="242" y="625" type="curve" smooth="yes"/>
      <point x="301" y="663"/>
      <point x="388" y="693"/>
      <point x="503" y="700" type="curve"/>
      <point x="502" y="569" type="line"/>
      <point x="476" y="566"/>
      <point x="440" y="562"/>
      <point x="394" y="548" type="curve" smooth="yes"/>
      <point x="341" y="532"/>
      <point x="317" y="517"/>
      <point x="313" y="501" type="curve" smooth="yes"/>
      <point x="311" y="487" type="line"/>
      <point x="360" y="501"/>
      <point x="410" y="509"/>
    </contour>
    <contour>
      <point x="392" y="349" type="curve" smooth="yes"/>
      <point x="343" y="349"/>
      <point x="280" y="342"/>
      <point x="272" y="308" type="curve" smooth="yes"/>
      <point x="248" y="191" type="line" smooth="yes"/>
      <point x="240" y="156"/>
      <point x="275" y="146"/>
      <point x="349" y="146" type="curve" smooth="yes"/>
      <point x="420" y="146"/>
      <point x="462" y="157"/>
      <point x="470" y="191" type="curve" smooth="yes"/>
      <point x="494" y="305" type="line" smooth="yes"/>
      <point x="501" y="340"/>
      <point x="463" y="349"/>
    </contour>
  </outline>
</glyph>
<glyph name="uni0433" format="2">
  <advance width="456" height="962"/>
  <unicode hex="0433"/>
  <outline>
    <contour>
      <point x="139" y="500" type="line"/>
      <point x="551" y="500" type="line"/>
      <point x="517" y="339" type="line"/>
      <point x="285" y="339" type="line"/>
      <point x="213" y="0" type="line"/>
      <point x="33" y="0" type="line"/>
    </contour>
  </outline>
</glyph>
<glyph name="uni044D" format="2">
  <advance width="545" height="962"/>
  <unicode hex="044D"/>
  <outline>
    <contour>
      <point x="150" y="337" type="curve"/>
      <point x="137" y="479" type="line"/>
      <point x="202" y="498"/>
      <point x="273" y="511"/>
      <point x="339" y="512" type="curve" smooth="yes"/>
      <point x="525" y="515"/>
      <point x="608" y="433"/>
      <point x="584" y="320" type="curve" smooth="yes"/>
      <point x="553" y="174" type="line" smooth="yes"/>
      <point x="526" y="45"/>
      <point x="399" y="-8"/>
      <point x="225" y="-12" type="curve" smooth="yes"/>
      <point x="158" y="-13"/>
      <point x="92" y="-6"/>
      <point x="33" y="5" type="curve"/>
      <point x="100" y="161" type="line"/>
      <point x="97.0174" y="160.997"/>
      <point x="189.005" y="144"/>
      <point x="241" y="144" type="curve" smooth="yes"/>
      <point x="315" y="144"/>
      <point x="364.4" y="136.25"/>
      <point x="369.8" y="161.95" type="curve" smooth="yes"/>
      <point x="372.738" y="176" type="line"/>
      <point x="168" y="176" type="line"/>
      <point x="160" y="321" type="line"/>
      <point x="403.059" y="321" type="line"/>
      <point x="406.3" y="336.5" type="line" smooth="yes"/>
      <point x="409.1" y="349.9"/>
      <point x="357" y="354"/>
      <point x="287" y="353" type="curve" smooth="yes"/>
      <point x="240" y="352"/>
      <point x="179" y="344"/>
    </contour>
  </outline>
</glyph>
<glyph name="uni0474" format="2">
  <advance width="792" height="962"/>
  <unicode hex="0474"/>
  <outline>
    <contour>
      <point x="872" y="723" type="curve"/>
      <point x="924" y="614" type="line"/>
      <point x="870" y="598"/>
      <point x="837" y="568"/>
      <point x="797" y="504" type="curve" smooth="yes"/>
      <point x="487" y="0" type="line"/>
      <point x="307" y="0" type="line"/>
      <point x="173" y="700" type="line"/>
      <point x="361" y="700" type="line"/>
      <point x="445" y="231" type="line"/>
      <point x="631" y="543" type="line" smooth="yes"/>
      <point x="697" y="653"/>
      <point x="782" y="712"/>
    </contour>
  </outline>
</glyph>
<glyph name="uni0494" format="2">
  <advance width="657" height="962"/>
  <unicode hex="0494"/>
  <outline>
    <component base="Gamma" xOffset="1"/>
    <contour>
      <point x="512" y="510" type="curve" smooth="yes"/>
      <point x="630" y="510"/>
      <point x="730" y="474"/>
      <point x="702" y="345" type="curve" smooth="yes"/>
      <point x="657" y="131" type="line" smooth="yes"/>
      <point x="637" y="37"/>
      <point x="550" y="-12"/>
      <point x="397" y="-14" type="curve"/>
      <point x="391" y="139" type="line"/>
      <point x="442" y="139"/>
      <point x="479" y="146"/>
      <point x="485" y="174" type="curve" smooth="yes"/>
      <point x="510" y="294" type="line" smooth="yes"/>
      <point x="518" y="327"/>
      <point x="510" y="350"/>
      <point x="420" y="350" type="curve" smooth="yes"/>
      <point x="393" y="350"/>
      <point x="321" y="347"/>
      <point x="292" y="344" type="curve"/>
      <point x="322" y="485" type="line"/>
      <point x="368" y="501"/>
      <point x="444" y="510"/>
    </contour>
  </outline>
</glyph>
<glyph name="uni04B3" format="2">
  <advance width="791" height="962"/>
  <unicode hex="04B3"/>
  <outline>
    <component base="x"/>
    <contour>
      <point x="599" y="149" type="line"/>
      <point x="803" y="149" type="line"/>
      <point x="744" y="-125" type="line"/>
      <point x="574" y="-125" type="line"/>
      <point x="589" y="0" type="line"/>
      <point x="567" y="0" type="line"/>
    </contour>
  </outline>
</glyph>
<glyph name="guilsinglright" format="2">
  <advance width="483" height="962"/>
  <unicode hex="203A"/>
  <outline>
    <contour>
      <point x="296" y="279" type="line"/>
      <point x="145" y="394" type="line"/>
      <point x="228" y="479" type="line"/>
      <point x="498" y="268" type="line"/>
      <point x="146" y="61" type="line"/>
      <point x="81" y="149" type="line"/>
    </contour>
  </outline>
</glyph>
<glyph name="fraction" format="2">
  <advance width="722" height="962"/>
  <unicode hex="2044"/>
  <outline>
    <contour>
      <point x="18" y="-115" type="line"/>
      <point x="648" y="819" type="line"/>
      <point x="857" y="819" type="line"/>
      <point x="227" y="-115" type="line"/>
    </contour>
  </outline>
</glyph>
<glyph name="Euro" format="2">
  <advance width="606" height="962"/>
  <unicode hex="20AC"/>
  <outline>
    <component base="C"/>
    <contour>
      <point x="78" y="367" type="line"/>
      <point x="105" y="493" type="line"/>
      <point x="631" y="493" type="line"/>
      <point x="604" y="367" type="line"/>
    </contour>
    <contour>
      <point x="46" y="215" type="line"/>
      <point x="72" y="340" type="line"/>
      <point x="598" y="340" type="line"/>
      <point x="572" y="215" type="line"/>
    </contour>
  </outline>
</glyph>
<glyph name="uni20B4" format="2">
  <advance width="819" height="962"/>
  <unicode hex="20B4"/>
  <outline>
    <contour>
      <point x="161" y="427" type="line"/>
      <point x="191" y="511" type="line"/>
      <point x="806" y="427" type="line"/>
      <point x="776" y="343" type="line"/>
    </contour>
    <contour>
      <point x="107" y="310" type="line"/>
      <point x="137" y="394" type="line"/>
      <point x="752" y="310" type="line"/>
      <point x="721" y="226" type="line"/>
    </contour>
    <contour>
      <point x="289" y="533" type="curve"/>
      <point x="275" y="673" type="line"/>
      <point x="355" y="699"/>
      <point x="441" y="710"/>
      <point x="524" y="710" type="curve" smooth="yes"/>
      <point x="676" y="710"/>
      <point x="868" y="668"/>
      <point x="835" y="513" type="curve" smooth="yes"/>
      <point x="788" y="291"/>
      <point x="274" y="281"/>
      <point x="256" y="199" type="curve" smooth="yes"/>
      <point x="248" y="162"/>
      <point x="316" y="148"/>
      <point x="421" y="148" type="curve" smooth="yes"/>
      <point x="527" y="148"/>
      <point x="631" y="165"/>
      <point x="716" y="210" type="curve"/>
      <point x="773" y="88" type="line"/>
      <point x="660" y="22"/>
      <point x="528" y="-12"/>
      <point x="399" y="-12" type="curve" smooth="yes"/>
      <point x="199" y="-12"/>
      <point x="37" y="46"/>
      <point x="72" y="214" type="curve" smooth="yes"/>
      <point x="119" y="432"/>
      <point x="633" y="437"/>
      <point x="650" y="519" type="curve" smooth="yes"/>
      <point x="658" y="553"/>
      <point x="569" y="557"/>
      <point x="494" y="557" type="curve" smooth="yes"/>
      <point x="416" y="557"/>
      <point x="358" y="550"/>
    </contour>
  </outline>
  <guideline angle="90" x="57.5232" y="0"/>
  <guideline angle="0" x="0" y="586"/>
  <guideline angle="90" x="482.011" y="0"/>
  <guideline angle="0" x="0" y="586"/>
  <guideline angle="90" x="498.028" y="0"/>
  <guideline angle="0" x="0" y="586"/>
  <guideline angle="90" x="723.477" y="0"/>
  <guideline angle="0" x="0" y="586"/>
</glyph>
